<svg viewBox="0 0 25 25" fill="none" stroke-width="0.9" stroke="currentColor" class="w-full h-auto" xmlns="http://www.w3.org/2000/svg">
              <path d="M18.5695 1.02238C18.3544 1.05802 18.1698 1.11803 17.9629 1.21743C17.4557 1.46311 17.1331 1.75005 16.9059 2.15139C16.7152 2.48522 16.6766 2.61837 16.6584 2.9822C16.6381 3.36479 16.6056 3.4098 16.2364 3.59172C15.9523 3.73238 15.3721 4.05307 15.0982 4.22374C14.7249 4.45254 14.3699 4.70947 13.9276 5.06768C13.4326 5.46902 13.1567 5.72033 12.8159 6.08416C11.7528 7.22067 11.1036 8.22215 10.5842 9.51806C10.4767 9.78813 10.1845 10.6527 10.1845 10.7033C10.1845 10.7633 9.93296 10.7183 9.67734 10.6152C9.47649 10.5327 9.3365 10.4408 9.14377 10.2645C8.86583 10.0113 8.69135 9.72624 8.596 9.37741C8.53514 9.15048 8.53514 8.75852 8.59803 8.52971C8.66498 8.27653 8.83945 7.76079 8.94495 7.50386C9.11943 7.07814 9.39737 6.52113 9.50083 6.38985C9.56778 6.30734 9.6956 6.24732 9.8721 6.21731C10.2637 6.14792 10.5457 6.02227 10.8987 5.75971C11.2557 5.4934 11.5864 5.03017 11.7081 4.6232C11.767 4.42628 11.7751 3.92554 11.7223 3.73238C11.6737 3.55796 11.558 3.29915 11.4748 3.18288C11.3815 3.05347 11.0975 2.79841 10.9474 2.71027C10.5558 2.47959 10.0932 2.37457 9.67125 2.41958C8.73193 2.52085 7.91636 3.15287 7.66074 3.97806C7.5593 4.31001 7.5451 4.55944 7.61002 4.92515C7.64248 5.11644 7.64653 5.1802 7.62828 5.25522C7.5877 5.43714 7.5451 5.48402 6.97095 5.97351C6.41304 6.44987 6.42318 6.43862 5.81252 7.08001C4.86306 8.07586 4.33355 8.70413 3.72288 9.55557C3.04933 10.4933 2.1871 11.9524 1.76917 12.8601C1.3553 13.7603 0.949549 14.8912 0.669578 15.9226C0.36932 17.0291 0.207018 17.9143 0.0913774 19.094C0.0629745 19.3772 0.0325429 19.6904 0.0203703 19.7879C-0.00803257 20.0486 -0.0060038 20.4087 0.0264566 20.4499C0.0508019 20.4818 0.0893486 20.4818 0.734499 20.4593C1.10982 20.448 1.4324 20.4424 1.45269 20.4499C1.48312 20.4612 1.48515 20.4799 1.475 20.6168C1.45674 20.8138 1.29647 22.1022 1.21735 22.6648C1.18489 22.9011 1.14431 23.218 1.12605 23.3681C1.10779 23.5181 1.06722 23.8463 1.03273 24.0995C0.99824 24.3527 0.969837 24.6565 0.967808 24.7747L0.963751 24.9903L1.23764 24.996C1.475 25.0016 2.34332 24.9753 3.61333 24.9266C3.9988 24.9116 4.0414 24.9003 4.11038 24.8009C4.15704 24.7371 4.15704 24.6077 4.11241 24.544C4.07183 24.484 4.06372 24.4821 3.449 24.2477C2.66995 23.9513 2.59083 23.9176 2.53199 23.8538C2.4407 23.7544 2.44273 23.7207 2.56445 23.3662C2.62532 23.1862 2.82617 22.5804 3.01281 22.0178C3.56058 20.3618 3.55247 20.3805 3.6113 20.3655C3.6397 20.358 3.86896 20.3524 4.12052 20.3505L4.58106 20.3486L4.62163 20.4856C4.70684 20.765 5.45952 23.1955 5.50821 23.3493C5.53661 23.4375 5.58936 23.6063 5.6279 23.7244C5.66645 23.8426 5.75977 24.1445 5.83687 24.3939L5.97482 24.8497H6.35015C6.55708 24.8497 6.9953 24.8403 7.32396 24.8309C8.67107 24.7897 9.18435 24.7747 9.64691 24.7559C10.1764 24.7353 11.8806 24.6846 12.3046 24.6753C12.5237 24.6715 12.5825 24.664 12.6495 24.6321C12.753 24.5815 12.8057 24.499 12.8057 24.3827C12.8057 24.2289 12.7651 24.1839 12.544 24.0995C12.4568 24.0676 12.2681 23.9907 12.122 23.9307C11.978 23.8707 11.8055 23.8032 11.7426 23.7807C11.6229 23.7394 11.5337 23.6625 11.5114 23.5838C11.489 23.4994 11.5174 23.3606 11.6615 22.843C11.9536 21.789 12.0551 21.2113 12.1423 20.1048C12.1606 19.8835 12.1869 19.6172 12.2052 19.5141C12.2559 19.1971 12.2742 19.034 12.2742 18.8614C12.2742 18.717 12.2782 18.6983 12.3066 18.7133C12.3411 18.7302 12.4385 18.9852 12.5481 19.3453C12.5866 19.4728 12.6414 19.6341 12.6698 19.7054C12.9132 20.298 13.4488 22.2447 13.6233 23.1712C13.6517 23.3268 13.7024 23.5838 13.7349 23.7432C13.7694 23.9026 13.8079 24.1239 13.8242 24.2327C13.8586 24.454 13.9033 24.5796 13.9601 24.6077C13.9966 24.6246 14.1589 24.6227 16.3013 24.5684C16.7375 24.5571 17.125 24.5402 17.1676 24.529C17.3035 24.4971 17.4293 24.3077 17.3948 24.1839C17.3705 24.0957 17.2406 24.0151 17.0256 23.9588C16.7638 23.8895 15.9463 23.6419 15.8834 23.6119C15.7921 23.5688 15.7413 23.5106 15.7129 23.415C15.6785 23.3062 15.4796 22.0609 15.1246 19.7579C14.9866 18.8596 14.8365 17.9068 14.7919 17.6387C14.6742 16.9391 14.4328 15.4275 14.3963 15.1631C14.3455 14.8086 14.3192 14.2723 14.3334 13.9159C14.4064 12.0668 15.0698 10.3995 16.3459 8.85229C16.5569 8.59723 16.6584 8.52409 16.7963 8.52409C16.9302 8.52409 16.9809 8.5616 17.1311 8.77727C17.2731 8.97607 17.8269 9.65872 18.0643 9.92128C18.5451 10.4558 19.0604 10.9715 19.4743 11.3354C19.8577 11.6711 20.7747 12.3968 21.1034 12.6256C21.4848 12.892 21.5071 12.9276 21.3611 13.0832C21.2556 13.1976 21.2414 13.2333 21.2414 13.4021V13.5409H21.2982C21.3611 13.5409 21.7912 13.4883 21.7993 13.4808C21.8033 13.4771 21.8175 13.4152 21.8317 13.3439C21.8601 13.2145 21.8622 13.2127 21.9271 13.207C21.9758 13.2033 22.0123 13.2145 22.0691 13.2558C22.1502 13.3158 22.487 13.4771 22.6473 13.5315L22.7426 13.5652V13.6684C22.7426 13.7265 22.6473 14.2216 22.5296 14.7693C22.0995 16.7647 21.8256 18.0381 21.5862 19.1671C21.4503 19.801 21.2779 20.6112 21.2008 20.9675C21.004 21.8752 20.7504 23.0849 20.6632 23.5181C20.6226 23.7188 20.5678 23.9813 20.5394 24.0995C20.513 24.2177 20.4907 24.3283 20.4907 24.3452C20.4907 24.3677 20.5414 24.3808 20.7139 24.4071C20.9472 24.4408 21.006 24.4371 21.0263 24.3864C21.0344 24.3696 21.1217 23.9663 21.2231 23.4919C21.4097 22.601 21.5964 21.7346 22.1929 18.9983C22.696 16.6878 22.8542 15.9658 22.9252 15.6601C22.9597 15.51 23.0064 15.3 23.0267 15.1912C23.047 15.0825 23.1099 14.8086 23.1667 14.5817C23.2539 14.2291 23.2924 14.0378 23.3432 13.6984C23.3513 13.6459 23.3614 13.6384 23.4365 13.6271C23.7388 13.5821 24.0005 13.3158 24.0005 13.0532C24.0005 12.9557 23.9518 12.8188 23.893 12.7475C23.8646 12.7138 23.7307 12.6163 23.5927 12.5281C22.765 12.0086 22.2213 11.5979 21.5781 11.0128C20.2878 9.83126 19.454 8.676 18.7683 7.11752C18.4842 6.46675 18.3463 6.07478 18.1596 5.38838C18.0379 4.94202 18.1008 4.7076 18.3767 4.58194C18.4883 4.53131 18.5045 4.52943 18.9286 4.51818C19.3302 4.5088 19.3769 4.50318 19.523 4.45817C20.1093 4.2725 20.5191 3.94055 20.7098 3.49607C20.8457 3.17912 20.866 3.07973 20.866 2.71027C20.866 2.33518 20.8376 2.19453 20.7118 1.96385C20.5414 1.65065 20.2168 1.34683 19.8882 1.19305C19.527 1.02614 18.9772 0.952994 18.5695 1.02238ZM7.63842 11.6092C7.68508 11.6298 7.78246 11.6936 7.85347 11.7517C8.21256 12.0405 8.85771 12.3687 9.36896 12.5225L9.65908 12.6106L9.64691 12.9107C9.64082 13.0776 9.62662 13.3683 9.61445 13.5596C9.59416 13.9272 9.6043 14.0753 9.67734 14.5255C9.69763 14.6586 9.73414 14.9287 9.75849 15.1256C9.78283 15.3206 9.82341 15.6226 9.84978 15.7932C10.0364 16.9804 10.0486 18.5295 9.88022 19.9492C9.80515 20.5793 9.64691 21.4983 9.55561 21.8302C9.53532 21.9071 9.48055 22.1397 9.43389 22.346C9.33448 22.7961 9.26955 23.0305 9.10522 23.5275C8.96118 23.9663 8.93886 24.0095 8.81714 24.1145C8.65484 24.2514 8.56151 24.2477 8.15373 24.0751C7.80681 23.9307 7.38077 23.7694 7.23672 23.73C7.11094 23.6963 7.01153 23.6081 6.9811 23.5069C6.97095 23.4675 6.91415 23.0886 6.85734 22.6648C6.80054 22.241 6.73359 21.7571 6.70518 21.5864C6.67881 21.4158 6.64229 21.1626 6.62403 21.0238C6.60577 20.885 6.57331 20.6656 6.551 20.5381C6.49825 20.2417 6.49419 20.2474 6.77619 20.2492C6.97095 20.2511 6.9811 20.2493 7.01153 20.2061C7.04602 20.1574 7.03993 20.0955 6.93646 19.5235C6.85126 19.0584 6.81474 18.8145 6.74576 18.2838C6.70518 17.98 6.63823 17.483 6.5936 17.1792C6.40695 15.8889 6.37246 15.4275 6.40695 14.7655C6.4455 14.0697 6.50433 13.7096 6.70518 12.9482C6.79851 12.6013 6.99327 12.048 7.10079 11.8267C7.21035 11.6054 7.43148 11.5173 7.63842 11.6092Z"></path>
            </svg>