<svg xmlns="http://www.w3.org/2000/svg" fill="none" viewBox="0 0 24 24" stroke-width="1" stroke="currentColor" stroke-linecap="round" stroke-linejoin="round" class="w-full h-auto">
              <g clip-path="url(#clip0_102_2)">
                <path d="M20 20V8L14 2H6C5.46957 2 4.96086 2.21071 4.58579 2.58579C4.21071 2.96086 4 3.46957 4 4V20C4 20.5304 4.21071 21.0391 4.58579 21.4142C4.96086 21.7893 5.46957 22 6 22H16.5"></path>
                <path d="M14 2V8H20"></path>
                <path d="M11 9H7"></path>
                <path d="M10 12H7"></path>
                <path d="M17 12H13"></path>
                <path d="M12 18H7"></path>
                <path d="M9 15H7"></path>
                <path d="M9 6H8H7"></path>
                <path d="M20.0554 20.4131C20.3833 20.7215 20.5753 21.1475 20.5892 21.5975C20.603 22.0475 20.4375 22.4845 20.1291 22.8124C19.8207 23.1404 19.3947 23.3324 18.9447 23.3462C18.4947 23.3601 18.0577 23.1946 17.7297 22.8862L9.8982 15.5217L9.00009 12.3471L12.2238 13.0486L20.0554 20.4131Z"></path>
              </g>
            </svg>